<?xml version="1.0" encoding="UTF-8"?><svg xmlns="http://www.w3.org/2000/svg" viewBox="0 0 954.3 593.69"><g id="a"/><g id="b"><g id="c"><g><path d="M312.82,323.36c-2.81-3.78-5.58-7.76-8.3-11.94-32.29-49.7-40.6-56.63-61.68-70.29,5.58,7.15,11.62,15.31,17.73,24.29,18.86,27.68,33.04,47.01,52.25,57.94Zm75.81,67.17c-.9-1.42-1.72-2.88-2.46-4.37,0,0-32.97-13.84-65.08-52.29-26.48-10.01-42.69-31.63-65.47-65.07-11.04-16.2-21.8-29.67-30.01-39.3-13.25-9.97-26.49-22.19-44.95-32.91,59.8,102.83,127.89,160.19,207.97,193.94Zm58.72,51.29c6.32,1.55,12.62,2.99,18.88,4.33,12.99,8.65,26.48,17.38,39.39,25.58-2.55-.38-5.08-.77-7.61-1.17-150.21-23.71-264.71-77.98-358.58-252.33-5.3-9.82-10.52-20.02-15.68-30.61l-6.26-13.08c1.48,.23,3.03,.49,4.65,.8,6.27,1.19,12.13,2.57,17.64,4.12,15,29.77,30.59,56.49,47.08,80.66,10.24,15.03,20.83,29.06,31.83,42.22,28.72,34.34,59.55,61.81,94.25,83.98,43.47,27.76,89.66,44.5,134.41,55.5Zm-22.37-12.59c8.83,2.61,17.81,5.02,26.92,7.24-3.58-2.44-7.08-4.87-10.48-7.25,0,0-27.07-10.25-44.64-28.43-23.82-9.28-47.49-20.85-70.41-35.49-34.71-22.17-65.54-49.64-94.26-83.98-21.95-26.25-42.24-55.99-61.46-90.12-6.87-3.4-14.44-6.56-22.9-9.33,18.61,36.31,38.04,67.69,58.41,94.86,62.84,83.84,134.58,127.59,218.82,152.5Zm128.14,72.09c-9.73-5.95-21.87-13.44-35.08-21.74-1.04-.14-2.09-.29-3.15-.44-.81-.11-1.63-.23-2.45-.35-67.11-9.54-144.88-25.56-215.46-70.64-34.71-22.17-65.54-49.64-94.26-83.98-27.55-32.95-52.5-71.4-75.97-117.13-2.83-5.5-5.63-11.1-8.41-16.81l-7.92-16.56c-8.37-.73-13.6-.06-16.52,.64l3.07,6.43,13.35,27.9c100.35,206.08,224.38,262.06,391.98,285.58,18.04,2.53,34.37,4.81,49.14,6.87,.56,.08,1.12,.15,1.68,.23ZM90.87,175.33c.12-.12,.95-.94,2.47-2.19,2.49-2.03,6.81-5.2,12.88-8.25,1.68-.85,3.5-1.69,5.46-2.5,4.95-2.04,10.74-3.85,17.35-5.01,2.01-.35,4.09-.64,6.25-.85,5.21-.53,10.85-.62,16.91-.11,1.86,.15,3.76,.36,5.69,.64,.49,.07,.98,.14,1.47,.23,42.64,6.92,88.36,52.72,128.11,65.17,40.22,12.59,101.56,54.95,141.36,72.16,39.81,17.21,85.71,33.45,154.77,22.49,69.06-10.97,123.49-24.38,157.2-28.84,.76-.1,1.52-.19,2.28-.28,29.83-3.35,60.42,4.93,84.21,7.71,2.53,.3,4.98,.54,7.35,.69,25.18,1.62,53.62-8.53,71.49,17.06,17.87,25.59,30.06,50.37,47.93,63.37,0,0-2.43,9.34-26.4,6.9-23.97-2.43-47.93-6.9-79.21-25.18s-49.97-4.06-72.71,14.22c-19.26,15.47-59.48,53.65-93.3,76.59-6.13,4.15-12.05,7.81-17.6,10.74-4.49,2.37-9.23,5-14.09,7.8-2.76,1.59-5.57,3.23-8.38,4.91-8.02,4.77-16.16,9.81-23.85,14.69-2.66,1.69-5.27,3.35-7.8,4.98-8.08,5.21-15.39,10.04-21.17,13.9-2.91,1.94-5.43,3.64-7.47,5.02-3.68,2.49-5.79,3.95-5.79,3.95l-.21-.12c-.88-.53-4.45-2.67-10.03-6.05l-.66-.09c-18.45-2.56-39.64-5.51-63.92-8.92-67.66-9.5-146.47-25.36-217.91-70.99-34.7-22.17-65.53-49.64-94.25-83.98-30.87-36.91-58.47-80.72-84.38-133.94l-15.51-32.42c.47-1.18,.95-2.34,1.45-3.49h.01Z" style="fill:#15297c; fill-rule:evenodd;"/><path d="M517.12,532.75c-6.71,1.2-13.86,2.25-21.44,3.08-6.43-.9-13.1-1.84-20.03-2.81-67.67-9.5-146.47-25.36-217.92-70.99-34.7-22.17-65.53-49.64-94.25-83.98-30.31-36.25-57.48-79.15-82.98-131.09-.41-5.1-.61-10.12-.6-15.07l4.6,9.61c100.35,206.07,224.38,262.05,391.98,285.57,14.65,2.06,28.16,3.95,40.64,5.68Z" style="fill:#15297c;"/><path d="M374.65,533.28c-3.39,2-7.02,4.32-10.41,6.84-10.97,8.12-28.84,16.65-38.19,25.59-9.34,8.93-11.37,20.71-19.49,25.99-8.13,5.28-9.35-1.62-13.82-19.09-4.46-17.46-2.43-21.53,2.44-30.46,4.88-8.94,6.09-23.56,6.91-26.81,.3-1.2,2.1-3.07,4.43-4.95,22.66,9.61,45.55,17.02,68.13,22.89Z" style="fill:#606d91;"/><path d="M311.13,507.12c-36.87-14.4-68.6-31.55-95.96-50.88-21.78-17.36-42.07-37.36-61.4-60.48-20.28-24.24-39.14-51.48-57.05-82.4-4.22-10.39-7.65-20.8-10.27-31.11,64.19,122.34,138.03,187.22,226.46,223.81,22.3,9.24,45.54,16.67,69.78,22.77,4.93,1.24,9.9,2.43,14.92,3.55-5.16-.91-10.4-1.95-15.71-3.14-8.29-1.84-16.76-4.03-25.38-6.59-15.94-4.74-31.05-9.92-45.39-15.53Z" style="fill:#15297c;"/><path d="M563.16,520.66c-3.78,1.37-8.11,2.82-12.94,4.27-18.28-2.54-39.2-5.46-63.15-8.82-67.67-9.5-146.47-25.36-217.92-70.99-34.7-22.17-65.53-49.64-94.25-83.98-30.86-36.91-58.47-80.72-84.38-133.94l-8.92-18.65c.5-3.41,1.11-6.76,1.84-10.05l12.48,26.09c100.35,206.07,224.38,262.05,391.98,285.57,29.42,4.13,54.28,7.6,75.26,10.5Z" style="fill:#15297c;"/><path d="M781.01,235.86c25.99,18.69,46.27,59.84,46.27,59.84-23.79-2.78-54.38-11.06-84.21-7.71-.91-3.59-6.02-20.38-23.4-26.53-19.5-6.91-14.62-6.91-32.9-18.69-18.28-11.78-40.62,0-40.62,0,6.9-12.19,21.12-24.78,31.27-31.28,10.16-6.5,22.75-3.25,39.81,0s37.78,5.69,63.78,24.37Z" style="fill:#3c53a0;"/></g><path d="M481.15,420.99s26.81,36.97,33.31,55.65c6.5,18.69,24.78,42.25,67.43,42.65s62.56,4.47,75.96,0,21.12-10.56,14.62-15.44c-6.5-4.87-33.72-9.34-44.28-22.34-10.56-13-20.72-30.87-42.25-37.37s-25.18,3.25-43.87-13.4-21.94-23.15-38.18-20.72c-16.25,2.44-22.75,10.97-22.75,10.97Z" style="fill:#606d91;"/></g></g></svg>